<?xml version="1.0" standalone="no"?>
<!DOCTYPE svg PUBLIC "-//W3C//DTD SVG 20010904//EN"
 "http://www.w3.org/TR/2001/REC-SVG-20010904/DTD/svg10.dtd">
<svg version="1.0" xmlns="http://www.w3.org/2000/svg"
 width="120.000000pt" height="120.000000pt" viewBox="0 0 120.000000 120.000000"
 preserveAspectRatio="xMidYMid meet">

<g transform="translate(0.000000,120.000000) scale(0.100000,-0.100000)"
fill="#000000" stroke="none">
<path d="M961 1138 c5 -18 9 -34 9 -35 0 -1 -15 0 -32 2 -30 5 -31 5 -10 -6
12 -7 22 -16 22 -21 0 -6 -10 -19 -22 -29 l-23 -20 33 16 32 16 1 -43 1 -43
11 38 12 39 30 -24 30 -23 -23 32 c-28 39 -28 41 6 46 l27 4 -27 2 c-31 1 -34
11 -17 44 12 22 11 22 -13 -1 l-26 -23 -10 30 c-14 41 -23 40 -11 -1z"/>
</g>
</svg>
